<svg id="visual" viewBox="0 0 960 540" width="960" height="540" xmlns="http://www.w3.org/2000/svg" xmlns:xlink="http://www.w3.org/1999/xlink" version="1.1"><rect x="0" y="0" width="960" height="540" fill="#574B60"></rect><defs><linearGradient id="grad1_0" x1="43.8%" y1="0%" x2="100%" y2="100%"><stop offset="14.444444444444446%" stop-color="#fcaf3c" stop-opacity="1"></stop><stop offset="85.55555555555554%" stop-color="#fcaf3c" stop-opacity="1"></stop></linearGradient></defs><defs><linearGradient id="grad1_1" x1="43.8%" y1="0%" x2="100%" y2="100%"><stop offset="14.444444444444446%" stop-color="#fcaf3c" stop-opacity="1"></stop><stop offset="85.55555555555554%" stop-color="#c96776" stop-opacity="1"></stop></linearGradient></defs><defs><linearGradient id="grad1_2" x1="43.8%" y1="0%" x2="100%" y2="100%"><stop offset="14.444444444444446%" stop-color="#574b60" stop-opacity="1"></stop><stop offset="85.55555555555554%" stop-color="#c96776" stop-opacity="1"></stop></linearGradient></defs><defs><linearGradient id="grad2_0" x1="0%" y1="0%" x2="56.3%" y2="100%"><stop offset="14.444444444444446%" stop-color="#fcaf3c" stop-opacity="1"></stop><stop offset="85.55555555555554%" stop-color="#fcaf3c" stop-opacity="1"></stop></linearGradient></defs><defs><linearGradient id="grad2_1" x1="0%" y1="0%" x2="56.3%" y2="100%"><stop offset="14.444444444444446%" stop-color="#c96776" stop-opacity="1"></stop><stop offset="85.55555555555554%" stop-color="#fcaf3c" stop-opacity="1"></stop></linearGradient></defs><defs><linearGradient id="grad2_2" x1="0%" y1="0%" x2="56.3%" y2="100%"><stop offset="14.444444444444446%" stop-color="#c96776" stop-opacity="1"></stop><stop offset="85.55555555555554%" stop-color="#574b60" stop-opacity="1"></stop></linearGradient></defs><g transform="translate(960, 0)"><path d="M0 351C-28.3 305.2 -56.5 259.3 -103.3 249.4C-150.1 239.6 -215.4 265.6 -248.2 248.2C-281 230.8 -281.2 169.9 -292.9 121.3C-304.6 72.7 -327.8 36.4 -351 0L0 0Z" fill="#8e5978"></path><path d="M0 234C-18.8 203.4 -37.7 172.9 -68.9 166.3C-100.1 159.7 -143.6 177.1 -165.5 165.5C-187.3 153.9 -187.4 113.3 -195.2 80.9C-203.1 48.5 -218.5 24.2 -234 0L0 0Z" fill="#f2825e"></path><path d="M0 117C-9.4 101.7 -18.8 86.4 -34.4 83.1C-50 79.9 -71.8 88.5 -82.7 82.7C-93.7 76.9 -93.7 56.6 -97.6 40.4C-101.5 24.2 -109.3 12.1 -117 0L0 0Z" fill="#fcaf3c"></path></g><g transform="translate(0, 540)"><path d="M0 -351C42.8 -328.6 85.6 -306.3 116 -279.9C146.3 -253.6 164.1 -223.3 201.5 -201.5C239 -179.7 296.1 -166.5 324.3 -134.3C352.5 -102.2 351.7 -51.1 351 0L0 0Z" fill="#8e5978"></path><path d="M0 -234C28.5 -219.1 57.1 -204.2 77.3 -186.6C97.5 -169.1 109.4 -148.9 134.4 -134.4C159.3 -119.8 197.4 -111 216.2 -89.5C235 -68.1 234.5 -34.1 234 0L0 0Z" fill="#f2825e"></path><path d="M0 -117C14.3 -109.5 28.5 -102.1 38.7 -93.3C48.8 -84.5 54.7 -74.4 67.2 -67.2C79.7 -59.9 98.7 -55.5 108.1 -44.8C117.5 -34.1 117.2 -17 117 0L0 0Z" fill="#fcaf3c"></path></g></svg>