<svg id="visual" viewBox="0 0 960 540" width="960" height="540" xmlns="http://www.w3.org/2000/svg" xmlns:xlink="http://www.w3.org/1999/xlink" version="1.1"><rect x="0" y="0" width="960" height="540" fill="#574B60"></rect><path d="M0 350L11.5 356.5C23 363 46 376 68.8 379.3C91.7 382.7 114.3 376.3 137.2 370C160 363.7 183 357.3 205.8 357.3C228.7 357.3 251.3 363.7 274.2 359.3C297 355 320 340 342.8 331.8C365.7 323.7 388.3 322.3 411.2 323.5C434 324.7 457 328.3 480 331.2C503 334 526 336 548.8 337.3C571.7 338.7 594.3 339.3 617.2 344.3C640 349.3 663 358.7 685.8 357C708.7 355.3 731.3 342.7 754.2 338.8C777 335 800 340 822.8 348.8C845.7 357.7 868.3 370.3 891.2 367.5C914 364.7 937 346.3 948.5 337.2L960 328L960 541L948.5 541C937 541 914 541 891.2 541C868.3 541 845.7 541 822.8 541C800 541 777 541 754.2 541C731.3 541 708.7 541 685.8 541C663 541 640 541 617.2 541C594.3 541 571.7 541 548.8 541C526 541 503 541 480 541C457 541 434 541 411.2 541C388.3 541 365.7 541 342.8 541C320 541 297 541 274.2 541C251.3 541 228.7 541 205.8 541C183 541 160 541 137.2 541C114.3 541 91.7 541 68.8 541C46 541 23 541 11.5 541L0 541Z" fill="#fa7268"></path><path d="M0 395L11.5 390C23 385 46 375 68.8 365.8C91.7 356.7 114.3 348.3 137.2 349.7C160 351 183 362 205.8 372C228.7 382 251.3 391 274.2 388.3C297 385.7 320 371.3 342.8 361.8C365.7 352.3 388.3 347.7 411.2 353.2C434 358.7 457 374.3 480 384.8C503 395.3 526 400.7 548.8 400.5C571.7 400.3 594.3 394.7 617.2 394.8C640 395 663 401 685.8 399.8C708.7 398.7 731.3 390.3 754.2 385.7C777 381 800 380 822.8 374.3C845.7 368.7 868.3 358.3 891.2 352.3C914 346.3 937 344.7 948.5 343.8L960 343L960 541L948.5 541C937 541 914 541 891.2 541C868.3 541 845.7 541 822.8 541C800 541 777 541 754.2 541C731.3 541 708.7 541 685.8 541C663 541 640 541 617.2 541C594.3 541 571.7 541 548.8 541C526 541 503 541 480 541C457 541 434 541 411.2 541C388.3 541 365.7 541 342.8 541C320 541 297 541 274.2 541C251.3 541 228.7 541 205.8 541C183 541 160 541 137.2 541C114.3 541 91.7 541 68.8 541C46 541 23 541 11.5 541L0 541Z" fill="#f46767"></path><path d="M0 417L11.5 413.8C23 410.7 46 404.3 68.8 396.2C91.7 388 114.3 378 137.2 380.8C160 383.7 183 399.3 205.8 399C228.7 398.7 251.3 382.3 274.2 382.8C297 383.3 320 400.7 342.8 400.8C365.7 401 388.3 384 411.2 378.5C434 373 457 379 480 389.3C503 399.7 526 414.3 548.8 417.2C571.7 420 594.3 411 617.2 408.2C640 405.3 663 408.7 685.8 411.5C708.7 414.3 731.3 416.7 754.2 418.8C777 421 800 423 822.8 421.7C845.7 420.3 868.3 415.7 891.2 407.8C914 400 937 389 948.5 383.5L960 378L960 541L948.5 541C937 541 914 541 891.2 541C868.3 541 845.7 541 822.8 541C800 541 777 541 754.2 541C731.3 541 708.7 541 685.8 541C663 541 640 541 617.2 541C594.3 541 571.7 541 548.8 541C526 541 503 541 480 541C457 541 434 541 411.2 541C388.3 541 365.7 541 342.8 541C320 541 297 541 274.2 541C251.3 541 228.7 541 205.8 541C183 541 160 541 137.2 541C114.3 541 91.7 541 68.8 541C46 541 23 541 11.5 541L0 541Z" fill="#ee5c67"></path><path d="M0 392L11.5 396.3C23 400.7 46 409.3 68.8 413.5C91.7 417.7 114.3 417.3 137.2 412.8C160 408.3 183 399.7 205.8 402.5C228.7 405.3 251.3 419.7 274.2 427.7C297 435.7 320 437.3 342.8 438.7C365.7 440 388.3 441 411.2 435.2C434 429.3 457 416.7 480 409.8C503 403 526 402 548.8 402.8C571.7 403.7 594.3 406.3 617.2 414.2C640 422 663 435 685.8 441C708.7 447 731.3 446 754.2 439.3C777 432.7 800 420.3 822.8 416C845.7 411.7 868.3 415.3 891.2 418C914 420.7 937 422.3 948.5 423.2L960 424L960 541L948.5 541C937 541 914 541 891.2 541C868.3 541 845.7 541 822.8 541C800 541 777 541 754.2 541C731.3 541 708.7 541 685.8 541C663 541 640 541 617.2 541C594.3 541 571.7 541 548.8 541C526 541 503 541 480 541C457 541 434 541 411.2 541C388.3 541 365.7 541 342.8 541C320 541 297 541 274.2 541C251.3 541 228.7 541 205.8 541C183 541 160 541 137.2 541C114.3 541 91.7 541 68.8 541C46 541 23 541 11.5 541L0 541Z" fill="#e75167"></path><path d="M0 435L11.5 435.2C23 435.3 46 435.7 68.8 439.2C91.7 442.7 114.3 449.3 137.2 446C160 442.7 183 429.3 205.8 424.5C228.7 419.7 251.3 423.3 274.2 424.5C297 425.7 320 424.3 342.8 424C365.7 423.7 388.3 424.3 411.2 424.3C434 424.3 457 423.7 480 430.5C503 437.3 526 451.7 548.8 456.7C571.7 461.7 594.3 457.3 617.2 455.8C640 454.3 663 455.7 685.8 458C708.7 460.3 731.3 463.7 754.2 464.2C777 464.7 800 462.3 822.8 461.8C845.7 461.3 868.3 462.7 891.2 457C914 451.3 937 438.7 948.5 432.3L960 426L960 541L948.5 541C937 541 914 541 891.2 541C868.3 541 845.7 541 822.8 541C800 541 777 541 754.2 541C731.3 541 708.7 541 685.8 541C663 541 640 541 617.2 541C594.3 541 571.7 541 548.8 541C526 541 503 541 480 541C457 541 434 541 411.2 541C388.3 541 365.7 541 342.8 541C320 541 297 541 274.2 541C251.3 541 228.7 541 205.8 541C183 541 160 541 137.2 541C114.3 541 91.7 541 68.8 541C46 541 23 541 11.5 541L0 541Z" fill="#df4667"></path><path d="M0 484L11.5 479.5C23 475 46 466 68.8 461.2C91.7 456.3 114.3 455.7 137.2 456.2C160 456.7 183 458.3 205.8 462.8C228.7 467.3 251.3 474.7 274.2 475.7C297 476.7 320 471.3 342.8 467.2C365.7 463 388.3 460 411.2 462C434 464 457 471 480 473.3C503 475.7 526 473.3 548.8 469.3C571.7 465.3 594.3 459.7 617.2 460.2C640 460.7 663 467.3 685.8 466.8C708.7 466.3 731.3 458.7 754.2 455.8C777 453 800 455 822.8 455.3C845.7 455.7 868.3 454.3 891.2 454.8C914 455.3 937 457.7 948.5 458.8L960 460L960 541L948.5 541C937 541 914 541 891.2 541C868.3 541 845.7 541 822.8 541C800 541 777 541 754.2 541C731.3 541 708.7 541 685.8 541C663 541 640 541 617.2 541C594.3 541 571.7 541 548.8 541C526 541 503 541 480 541C457 541 434 541 411.2 541C388.3 541 365.7 541 342.8 541C320 541 297 541 274.2 541C251.3 541 228.7 541 205.8 541C183 541 160 541 137.2 541C114.3 541 91.7 541 68.8 541C46 541 23 541 11.5 541L0 541Z" fill="#d73b67"></path><path d="M0 472L11.5 474C23 476 46 480 68.8 481C91.7 482 114.3 480 137.2 480.5C160 481 183 484 205.8 485C228.7 486 251.3 485 274.2 484.8C297 484.7 320 485.3 342.8 484.3C365.7 483.3 388.3 480.7 411.2 479.8C434 479 457 480 480 479.3C503 478.7 526 476.3 548.8 478.5C571.7 480.7 594.3 487.3 617.2 488.8C640 490.3 663 486.7 685.8 483.2C708.7 479.7 731.3 476.3 754.2 476.8C777 477.3 800 481.7 822.8 486.8C845.7 492 868.3 498 891.2 498.2C914 498.3 937 492.7 948.5 489.8L960 487L960 541L948.5 541C937 541 914 541 891.2 541C868.3 541 845.7 541 822.8 541C800 541 777 541 754.2 541C731.3 541 708.7 541 685.8 541C663 541 640 541 617.2 541C594.3 541 571.7 541 548.8 541C526 541 503 541 480 541C457 541 434 541 411.2 541C388.3 541 365.7 541 342.8 541C320 541 297 541 274.2 541C251.3 541 228.7 541 205.8 541C183 541 160 541 137.2 541C114.3 541 91.7 541 68.8 541C46 541 23 541 11.5 541L0 541Z" fill="#cf3068"></path><path d="M0 499L11.5 501.7C23 504.3 46 509.7 68.8 509.8C91.7 510 114.3 505 137.2 505.3C160 505.7 183 511.3 205.8 515.3C228.7 519.3 251.3 521.7 274.2 521.7C297 521.7 320 519.3 342.8 516.7C365.7 514 388.3 511 411.2 510.8C434 510.7 457 513.3 480 513.8C503 514.3 526 512.7 548.8 512.7C571.7 512.7 594.3 514.3 617.2 516.2C640 518 663 520 685.8 518.5C708.7 517 731.3 512 754.2 510.5C777 509 800 511 822.8 512.3C845.7 513.7 868.3 514.3 891.2 515.2C914 516 937 517 948.5 517.5L960 518L960 541L948.5 541C937 541 914 541 891.2 541C868.3 541 845.7 541 822.8 541C800 541 777 541 754.2 541C731.3 541 708.7 541 685.8 541C663 541 640 541 617.2 541C594.3 541 571.7 541 548.8 541C526 541 503 541 480 541C457 541 434 541 411.2 541C388.3 541 365.7 541 342.8 541C320 541 297 541 274.2 541C251.3 541 228.7 541 205.8 541C183 541 160 541 137.2 541C114.3 541 91.7 541 68.8 541C46 541 23 541 11.5 541L0 541Z" fill="#c62368"></path></svg>