<svg id="visual" viewBox="0 0 960 540" width="960" height="540" xmlns="http://www.w3.org/2000/svg" xmlns:xlink="http://www.w3.org/1999/xlink" version="1.1"><path d="M0 179L14.5 175.5C29 172 58 165 87.2 162.3C116.3 159.7 145.7 161.3 174.8 173C204 184.7 233 206.3 262 219.8C291 233.3 320 238.7 349 219.7C378 200.7 407 157.3 436.2 145.7C465.3 134 494.7 154 523.8 166.7C553 179.3 582 184.7 611 169.3C640 154 669 118 698 115.3C727 112.7 756 143.3 785.2 149.7C814.3 156 843.7 138 872.8 136.2C902 134.3 931 148.7 945.5 155.8L960 163L960 0L945.5 0C931 0 902 0 872.8 0C843.7 0 814.3 0 785.2 0C756 0 727 0 698 0C669 0 640 0 611 0C582 0 553 0 523.8 0C494.7 0 465.3 0 436.2 0C407 0 378 0 349 0C320 0 291 0 262 0C233 0 204 0 174.8 0C145.7 0 116.3 0 87.2 0C58 0 29 0 14.5 0L0 0Z" fill="#000d1b"></path><path d="M0 325L14.5 316C29 307 58 289 87.2 277.3C116.3 265.7 145.7 260.3 174.8 281C204 301.7 233 348.3 262 359.2C291 370 320 345 349 333.3C378 321.7 407 323.3 436.2 325C465.3 326.7 494.7 328.3 523.8 331C553 333.7 582 337.3 611 330.2C640 323 669 305 698 293.3C727 281.7 756 276.3 785.2 289C814.3 301.7 843.7 332.3 872.8 342.2C902 352 931 341 945.5 335.5L960 330L960 161L945.5 153.8C931 146.7 902 132.3 872.8 134.2C843.7 136 814.3 154 785.2 147.7C756 141.3 727 110.7 698 113.3C669 116 640 152 611 167.3C582 182.7 553 177.3 523.8 164.7C494.7 152 465.3 132 436.2 143.7C407 155.3 378 198.7 349 217.7C320 236.7 291 231.3 262 217.8C233 204.3 204 182.7 174.8 171C145.7 159.3 116.3 157.7 87.2 160.3C58 163 29 170 14.5 173.5L0 177Z" fill="#000f1e"></path><path d="M0 401L14.5 393.7C29 386.3 58 371.7 87.2 359C116.3 346.3 145.7 335.7 174.8 348.3C204 361 233 397 262 401.5C291 406 320 379 349 367.3C378 355.7 407 359.3 436.2 370.2C465.3 381 494.7 399 523.8 406.2C553 413.3 582 409.7 611 398C640 386.3 669 366.7 698 358.5C727 350.3 756 353.7 785.2 363.5C814.3 373.3 843.7 389.7 872.8 394.2C902 398.7 931 391.3 945.5 387.7L960 384L960 328L945.5 333.5C931 339 902 350 872.8 340.2C843.7 330.3 814.3 299.7 785.2 287C756 274.3 727 279.7 698 291.3C669 303 640 321 611 328.2C582 335.3 553 331.7 523.8 329C494.7 326.3 465.3 324.7 436.2 323C407 321.3 378 319.7 349 331.3C320 343 291 368 262 357.2C233 346.3 204 299.7 174.8 279C145.7 258.3 116.3 263.7 87.2 275.3C58 287 29 305 14.5 314L0 323Z" fill="#001122"></path><path d="M0 449L14.5 458C29 467 58 485 87.2 484.2C116.3 483.3 145.7 463.7 174.8 463.7C204 463.7 233 483.3 262 484.2C291 485 320 467 349 457.2C378 447.3 407 445.7 436.2 453.8C465.3 462 494.7 480 523.8 480.8C553 481.7 582 465.3 611 459.8C640 454.3 669 459.7 698 457C727 454.3 756 443.7 785.2 448.2C814.3 452.7 843.7 472.3 872.8 477.7C902 483 931 474 945.5 469.5L960 465L960 382L945.5 385.7C931 389.3 902 396.7 872.8 392.2C843.7 387.7 814.3 371.3 785.2 361.5C756 351.7 727 348.3 698 356.5C669 364.7 640 384.3 611 396C582 407.7 553 411.3 523.8 404.2C494.7 397 465.3 379 436.2 368.2C407 357.3 378 353.7 349 365.3C320 377 291 404 262 399.5C233 395 204 359 174.8 346.3C145.7 333.7 116.3 344.3 87.2 357C58 369.7 29 384.3 14.5 391.7L0 399Z" fill="#002442"></path><path d="M0 541L14.5 541C29 541 58 541 87.2 541C116.3 541 145.7 541 174.8 541C204 541 233 541 262 541C291 541 320 541 349 541C378 541 407 541 436.2 541C465.3 541 494.7 541 523.8 541C553 541 582 541 611 541C640 541 669 541 698 541C727 541 756 541 785.2 541C814.3 541 843.7 541 872.8 541C902 541 931 541 945.5 541L960 541L960 463L945.5 467.5C931 472 902 481 872.8 475.7C843.7 470.3 814.3 450.7 785.2 446.2C756 441.7 727 452.3 698 455C669 457.7 640 452.3 611 457.8C582 463.3 553 479.7 523.8 478.8C494.7 478 465.3 460 436.2 451.8C407 443.7 378 445.3 349 455.2C320 465 291 483 262 482.2C233 481.3 204 461.7 174.8 461.7C145.7 461.7 116.3 481.3 87.2 482.2C58 483 29 465 14.5 456L0 447Z" fill="#003664"></path></svg>