<!DOCTYPE svg PUBLIC "-//W3C//DTD SVG 1.1//EN" "http://www.w3.org/Graphics/SVG/1.1/DTD/svg11.dtd">
<!-- Uploaded to: SVG Repo, www.svgrepo.com, Transformed by: SVG Repo Mixer Tools -->
<svg width="800px" height="800px" viewBox="0 0 18 18" xmlns="http://www.w3.org/2000/svg" fill="#000000">
<g id="SVGRepo_bgCarrier" stroke-width="0"/>
<g id="SVGRepo_tracerCarrier" stroke-linecap="round" stroke-linejoin="round"/>
<g id="SVGRepo_iconCarrier"> <path fill="#574B60" d="M15.6 0H4.4A1.39 1.39 0 0 0 3 1.4V3H2a1 1 0 0 0 0 2h1v3H2a1 1 0 0 0 0 2h1v3H2a1 1 0 0 0 0 2h1v1.54A1.444 1.444 0 0 0 4.4 18h11.2a1.444 1.444 0 0 0 1.4-1.46V1.43A1.417 1.417 0 0 0 15.6 0zM5.5 15.5a1.48 1.48 0 0 1-1.16-.56 1 1 0 0 0 0-1.88 1.48 1.48 0 0 1 1.16-.56 1.5 1.5 0 0 1 0 3zm0-5a1.48 1.48 0 0 1-1.16-.56 1 1 0 0 0 0-1.88A1.48 1.48 0 0 1 5.5 7.5a1.5 1.5 0 0 1 0 3zm0-5a1.48 1.48 0 0 1-1.16-.56 1 1 0 0 0 0-1.88A1.48 1.48 0 0 1 5.5 2.5a1.5 1.5 0 0 1 0 3z"/> </g>
</svg>