<!DOCTYPE svg PUBLIC "-//W3C//DTD SVG 1.1//EN" "http://www.w3.org/Graphics/SVG/1.1/DTD/svg11.dtd">
<!-- Uploaded to: SVG Repo, www.svgrepo.com, Transformed by: SVG Repo Mixer Tools -->
<svg fill="#EAF0CE" width="256px" height="256px" viewBox="-4.68 -4.68 45.36 45.36" version="1.1" preserveAspectRatio="xMidYMid meet" xmlns="http://www.w3.org/2000/svg" xmlns:xlink="http://www.w3.org/1999/xlink" stroke="#EAF0CE" transform="rotate(0)matrix(1, 0, 0, 1, 0, 0)" stroke-width="0.00036">
<g id="SVGRepo_bgCarrier" stroke-width="0" transform="translate(0,0), scale(1)">
<path transform="translate(-4.68, -4.68), scale(1.4175)" d="M16,28.471470829537687C18.308001868397895,28.669182335008294,20.377621131429336,27.07253452430994,22.183629330874947,25.621915054063226C23.857574997003905,24.277370673718128,24.811577543935755,22.372079704475667,25.898752025018833,20.52060857816793C27.11504712822568,18.449243490189126,29.2520392014534,16.52136718502867,28.924752914944698,14.141701075582695C28.597500311356267,11.76227987130735,25.845081087879535,10.647114865362358,24.289157207198762,8.817404393337393C22.714202527308853,6.9653143865316345,21.95723366441485,4.27926323362201,19.72296846298349,3.3207338148299925C17.427655757938822,2.3360142069235925,14.836056663889517,3.197283474138751,12.392364716167123,3.7135225512837593C9.758919815196444,4.2698476505485905,6.630227651509033,4.323536333555245,4.96527080392009,6.438352722319806C3.3032350849945997,8.549458714157202,4.067690579609111,11.597862028858597,4.069862997953653,14.28470525471947C4.071736321814252,16.60162894363239,3.7582140848654997,19.063590328561148,4.977071960443292,21.03400256175758C6.149695944014715,22.92967283510537,8.613924102069776,23.37103295903763,10.461693537111632,24.61777307110049C12.364587572614905,25.901707244962047,13.712838966169814,28.275544622785446,16,28.471470829537687" fill="#574B60" strokewidth="0"/>
</g>
<g id="SVGRepo_tracerCarrier" stroke-linecap="round" stroke-linejoin="round" stroke="#CCCCCC" stroke-width="1.6560000000000001"/>
<g id="SVGRepo_iconCarrier"> <title>lightning-solid</title> <path d="M30.8,2.29A.49.49,0,0,0,30.35,2H16.42a.5.5,0,0,0-.42.23l-10.71,17A.49.49,0,0,0,5.7,20h7.67L6.6,33.25a.52.52,0,0,0,.46.75h3a.5.5,0,0,0,.37-.16L28,14.85a.5.5,0,0,0-.37-.85H20.89L30.72,2.82A.49.49,0,0,0,30.8,2.29Z" class="clr-i-solid clr-i-solid-path-1"/> <rect x="0" y="0" width="36" height="36" fill-opacity="0"/> </g>
</svg>